PathFileType	4	(X/Y/Z)	G:\Shared drives\HPL_Drive\Nord Sprinting Study\Kristen_Nord_test\Trimmed_Nord000004.trc
DataRate	CameraRate	NumFrames	NumMarkers	Units	OrigDataRate	OrigDataStartFrame	OrigNumFrames
200.00	200.00	      5	52	mm	200.00	126	      1002
Frame#	Time	C7			R_Shoulder			L_Shoulder			Sternum			R_humerus			R_elbow_med			R_elbow_lat			R_forearm			R_wrist_radius			R_wrist_ulna			L_humerus			L_elbow_med			L_elbow_lat			L_forearm			L_wrist_radius			L_wrist_ulna			r.ASIS			r.PSIS			r_IC			L.ASIS			L.PSIS			l_IC			r_thigh1			r_thigh2			r_thigh3			r_thigh4			r_thigh5			r_knee			r_mknee			r_shank_antsup			r_sh2			r_sh3			r_sh4			r_ankle			r_mankle			r_calc			r_5meta			r_toe			L_thigh1			L_thigh2			L_thigh3			L_thigh4			L_knee			L_mknee			L_shank_antsup			L_sh2			L_sh3			L_ankle			L_mankle			L_calc			L_5meta			L_toe			
		X1	Y1	Z1	X2	Y2	Z2	X3	Y3	Z3	X4	Y4	Z4	X5	Y5	Z5	X6	Y6	Z6	X7	Y7	Z7	X8	Y8	Z8	X9	Y9	Z9	X10	Y10	Z10	X11	Y11	Z11	X12	Y12	Z12	X13	Y13	Z13	X14	Y14	Z14	X15	Y15	Z15	X16	Y16	Z16	X17	Y17	Z17	X18	Y18	Z18	X19	Y19	Z19	X20	Y20	Z20	X21	Y21	Z21	X22	Y22	Z22	X23	Y23	Z23	X24	Y24	Z24	X25	Y25	Z25	X26	Y26	Z26	X27	Y27	Z27	X28	Y28	Z28	X29	Y29	Z29	X30	Y30	Z30	X31	Y31	Z31	X32	Y32	Z32	X33	Y33	Z33	X34	Y34	Z34	X35	Y35	Z35	X36	Y36	Z36	X37	Y37	Z37	X38	Y38	Z38	X39	Y39	Z39	X40	Y40	Z40	X41	Y41	Z41	X42	Y42	Z42	X43	Y43	Z43	X44	Y44	Z44	X45	Y45	Z45	X46	Y46	Z46	X47	Y47	Z47	X48	Y48	Z48	X49	Y49	Z49	X50	Y50	Z50	X51	Y51	Z51	X52	Y52	Z52	

126	0.625	1231.91553	244.11653	1278.35974	1347.08594	297.53894	1288.37708	1092.24988	274.14377	1298.72498	1214.03162	378.29007	1255.40149	1523.31567	287.13815	1268.52478	1656.76868	343.90027	1206.13489	1656.23083	270.69031	1235.28699	1637.84473	304.14001	1359.77039	1590.79956	364.75412	1454.34277	1635.86011	349.11502	1464.11743	895.21033	225.80553	1261.00208	777.49078	269.28409	1191.28516	781.69934	196.54254	1215.67444	809.49597	240.58615	1355.27209	848.22235	290.55893	1433.36804	791.62469	285.46530	1440.65247	1333.73669	421.99826	789.20563	1295.91028	239.07695	849.67517	1374.90283	348.81924	871.57660	1095.20374	401.71756	787.60034	1179.85608	232.96971	844.28583	1072.93347	334.19168	860.89972	1389.01392	391.62100	525.39502	1383.33240	389.09311	410.25552	1395.03528	341.33841	381.86603	1402.32214	284.18201	529.56073	1383.65393	279.71265	412.07263	1377.47217	344.59814	304.63467	1248.77417	328.58289	313.04950	1402.86450	216.70705	290.07663	1387.43091	97.31133	284.04327	1393.65479	212.07896	365.19775	1381.99866	96.61263	366.53558	1373.88013	-71.76353	324.30484	1297.33337	-56.74821	284.36676	1316.21533	-96.70892	374.15891	1395.35498	-147.19214	222.65625	1361.12048	-123.80935	169.45743	1038.17969	381.63416	530.51929	1040.16907	382.58350	389.85562	1037.98914	263.22269	534.54059	1048.49121	267.00671	396.57727	1030.83801	310.31198	329.78189	1158.71631	320.80356	303.56604	1017.76404	203.28706	309.37680	1049.95984	203.50624	391.46179	1066.67725	84.54235	375.83472	1065.09509	-86.39040	331.92072	1130.42493	-59.63338	273.39618	1128.39697	-94.60371	365.87677	1039.62842	-166.77809	221.27795	1066.37122	-137.49757	160.43475	
127	0.630	1231.91211	244.17006	1278.35815	1347.05481	297.57721	1288.37695	1092.24121	274.18033	1298.71338	1214.07239	378.31412	1255.37610	1523.29919	287.17569	1268.52942	1656.74036	343.94012	1206.17480	1656.07727	270.82626	1235.31494	1637.82263	304.15503	1359.79712	1590.78467	364.75616	1454.36462	1635.84070	349.10681	1464.14490	895.20941	225.82091	1260.99060	777.48303	269.31418	1191.31702	781.68152	196.57855	1215.67383	809.47638	240.61353	1355.28870	848.20282	290.59534	1433.34570	791.59027	285.53827	1440.60107	1333.75647	422.00403	789.19049	1295.92688	239.11655	849.69159	1374.89685	348.85114	871.60333	1095.22400	401.78491	787.52991	1179.83691	232.98729	844.30182	1072.91931	334.21130	860.87408	1389.35828	391.34775	525.50574	1383.61255	388.75797	410.56223	1395.00476	341.34692	381.87985	1402.36206	284.24854	529.55762	1383.56177	279.98077	412.14651	1377.46655	344.55872	304.60324	1248.77979	328.59903	313.05533	1403.22314	216.87387	290.19617	1387.43481	97.32715	284.04456	1393.96228	212.24512	365.15070	1382.00500	96.56911	366.53156	1373.87671	-71.77309	324.32187	1297.37256	-56.74474	284.27634	1316.22864	-96.70259	374.15244	1395.37402	-147.19191	222.66159	1361.09045	-123.83750	169.42613	1038.19873	381.65616	530.48090	1040.17468	382.60345	389.85474	1037.92395	263.28592	534.62402	1048.57239	266.88303	396.42166	1030.86389	310.29199	329.78720	1158.73560	320.79568	303.56857	1017.74329	203.30927	309.38623	1049.90417	203.53058	391.45361	1066.02112	84.57902	376.24240	1065.10559	-86.40256	331.96307	1130.43066	-59.63409	273.41336	1128.39893	-94.61174	365.86646	1039.65125	-166.79863	221.31233	1066.41418	-137.49507	160.35934	
128	0.635	1231.91650	244.22200	1278.34973	1347.04395	297.57388	1288.38611	1092.09058	274.41733	1298.73926	1214.04785	378.34341	1255.37183	1523.29089	287.19308	1268.54639	1656.73572	343.96707	1206.17627	1656.03430	270.82843	1235.35059	1637.80847	304.18634	1359.79822	1590.75964	364.77545	1454.36963	1635.84229	349.12302	1464.14661	895.18701	225.85590	1261.01855	777.50256	269.33871	1191.28833	781.65710	196.60715	1215.67480	809.43011	240.62834	1355.32178	848.15228	290.64005	1433.39624	791.57208	285.59171	1440.58777	1333.76318	422.03314	789.19678	1295.91846	239.11824	849.74585	1374.61975	348.91226	871.53259	1095.23450	401.77335	787.63873	1179.83606	233.00986	844.32062	1072.93115	334.23578	860.86572	1389.40039	391.33313	525.48486	1383.62732	388.74261	410.56137	1395.00439	341.37784	381.85587	1402.33716	284.23907	529.54150	1383.54626	279.99094	412.15186	1377.46033	344.59183	304.63397	1248.79211	328.57211	313.05545	1402.84753	216.72969	290.04648	1387.45801	97.33379	284.04239	1393.70984	212.07251	365.19458	1382.02539	96.58659	366.50287	1373.89722	-71.76107	324.30484	1297.36182	-56.74605	284.26563	1316.25732	-96.70407	374.15753	1395.37903	-147.17513	222.65706	1361.11182	-123.80783	169.43224	1038.21423	381.65179	530.49493	1040.16174	382.58563	389.86783	1037.91833	263.33484	534.59448	1048.45715	267.02469	396.59537	1030.85107	310.30048	329.79529	1158.70081	320.77780	303.56274	1017.74500	203.27351	309.34387	1049.91064	203.57637	391.43631	1066.64551	84.52676	375.82373	1065.12134	-86.39611	331.92938	1130.42603	-59.63965	273.40323	1128.34705	-94.61922	365.89505	1039.65479	-166.79272	221.29706	1066.40576	-137.51913	160.31874	
129	0.640	1231.86548	244.24992	1278.40808	1346.79333	298.04620	1288.40393	1092.21521	274.26358	1298.69629	1214.07068	378.40427	1255.32898	1523.24890	287.23441	1268.58411	1656.69836	344.01730	1206.18750	1656.04175	270.88068	1235.36621	1637.78418	304.21567	1359.78088	1590.74683	364.79901	1454.37634	1635.83203	349.13858	1464.09521	895.20447	225.89114	1260.96924	777.46942	269.37213	1191.26184	781.69202	196.61388	1215.63000	809.44055	240.69641	1355.27307	848.01288	290.77109	1433.43079	791.52454	285.63354	1440.59448	1333.74353	422.04135	789.18988	1295.90137	239.12952	849.75085	1374.91394	348.89636	871.61133	1095.19360	401.77960	787.60303	1179.82153	233.03247	844.32458	1072.92175	334.23611	860.87317	1389.38391	391.34421	525.48627	1383.62915	388.77798	410.54553	1395.03430	341.36890	381.84946	1402.34583	284.22266	529.56268	1383.53333	279.95084	412.13672	1377.46667	344.58838	304.63803	1248.76843	328.59109	313.05984	1403.17358	216.84854	290.15857	1387.40625	97.33080	284.03983	1393.70862	212.08974	365.17499	1382.00403	96.58346	366.54938	1373.93982	-71.74164	324.21887	1297.36328	-56.74016	284.31271	1316.22583	-96.71439	374.21039	1395.37354	-147.17691	222.72031	1361.10779	-123.79272	169.52222	1038.21533	381.66904	530.48352	1040.17883	382.61215	389.85797	1037.92969	263.35394	534.60858	1048.43677	267.03128	396.58267	1030.82324	310.31686	329.76865	1158.72351	320.80704	303.57486	1017.71802	203.29056	309.33911	1049.91541	203.55696	391.47012	1065.94336	84.59604	376.14746	1065.09668	-86.38706	331.90988	1130.43420	-59.63206	273.41971	1128.40588	-94.64361	365.92340	1039.62634	-166.78188	221.29054	1066.40918	-137.52528	160.39587	
130	0.645	1231.82874	244.22963	1278.41577	1346.78955	298.04761	1288.41150	1092.19250	274.30161	1298.71008	1214.06152	378.41455	1255.35950	1523.25964	287.26080	1268.54578	1656.69666	344.05304	1206.17163	1656.11829	270.77274	1235.34448	1637.78088	304.24469	1359.79749	1590.72070	364.80768	1454.38757	1635.81689	349.16611	1464.13477	895.19629	225.94287	1260.96472	777.46509	269.41846	1191.29883	781.68097	196.66655	1215.64160	809.44440	240.72551	1355.27893	848.15985	290.73813	1433.34192	791.50690	285.67715	1440.60876	1333.78467	422.09644	789.21313	1295.91296	239.15959	849.75293	1374.87634	348.92535	871.67438	1095.16772	401.78894	787.58209	1179.82019	233.04370	844.34662	1072.92322	334.23138	860.86609	1389.41125	391.35300	525.48553	1383.60706	388.75830	410.55591	1395.00635	341.36148	381.83658	1402.36169	284.23239	529.55096	1383.55225	280.00156	412.14691	1377.44690	344.60150	304.68652	1248.77295	328.57596	313.01917	1403.18323	216.84413	290.16992	1387.42834	97.34643	284.03964	1393.71655	212.09540	365.19086	1382.01123	96.59110	366.51947	1373.92102	-71.75892	324.26996	1297.38770	-56.74216	284.26251	1316.27588	-96.70467	374.16174	1395.38306	-147.17851	222.65437	1361.07898	-123.81139	169.46048	1038.22241	381.66815	530.51770	1040.17651	382.61887	389.84595	1037.92725	263.29089	534.58710	1048.40552	267.02969	396.58005	1030.83411	310.30893	329.80032	1158.71045	320.82184	303.56924	1017.73523	203.28725	309.32214	1049.91443	203.54456	391.48102	1065.93640	84.65915	376.19760	1065.09363	-86.39576	331.92117	1130.42798	-59.62830	273.40894	1128.31592	-94.60719	365.95706	1039.63794	-166.79138	221.30128	1066.39941	-137.49910	160.34966	
